<?xml version="1.0" encoding="iso-8859-1"?>
<!-- Generator: Adobe Illustrator 19.0.0, SVG Export Plug-In . SVG Version: 6.00 Build 0)  -->
<svg version="1.1" id="Layer_1" xmlns="http://www.w3.org/2000/svg" xmlns:xlink="http://www.w3.org/1999/xlink" x="0px" y="0px"
	 viewBox="0 0 512 512" style="enable-background:new 0 0 512 512;" xml:space="preserve">
<polygon style="fill:#F7BA35;" points="303.082,25.072 271.435,56.719 271.435,11.964 240.565,11.964 240.565,56.719 
	208.918,25.072 187.089,46.901 245.086,104.898 266.914,104.898 324.911,46.901 "/>
<polygon style="fill:#FD9702;" points="303.082,25.072 271.435,56.719 271.435,11.964 255.989,11.964 255.989,104.898 
	266.914,104.898 324.911,46.901 "/>
<rect x="58.766" y="201.65" style="fill:#BA7400;" width="394.47" height="298.38"/>
<g>
	<rect x="255.99" y="201.65" style="fill:#804D00;" width="197.25" height="298.38"/>
	<path style="fill:#804D00;" d="M304.736,500.036h-97.473V399.663c0-26.916,21.82-48.736,48.736-48.736l0,0
		c26.916,0,48.736,21.82,48.736,48.736v100.373H304.736z"/>
</g>
<path style="fill:#4C3011;" d="M304.736,500.036h-48.747c0,0,0.011-112.044,0.011-149.109l0,0c26.916,0,48.736,21.82,48.736,48.736
	V500.036z"/>
<path style="fill:#FD9702;" d="M512,252.324c0,0-109.654-131.015-256-174.876C109.654,121.31,0,252.324,0,252.324
	c31.998,0,31.998,23.071,63.997,23.071c32,0,32-23.071,63.999-23.071c31.998,0,31.998,23.071,63.996,23.071
	s31.998-23.071,63.997-23.071c32,0,32,23.071,64,23.071c31.999,0,31.999-23.071,63.998-23.071c32.003,0,32.003,23.071,64.007,23.071
	S479.997,252.324,512,252.324z"/>
<path style="fill:#BA7400;" d="M512,252.324c0,0-109.654-131.015-256-174.876c0,51.184-0.011,105.244-0.011,174.876
	c32,0,32,23.071,64,23.071c31.999,0,31.999-23.071,63.998-23.071c32.003,0,32.003,23.071,64.007,23.071S479.997,252.324,512,252.324
	z"/>
<g>
</g>
<g>
</g>
<g>
</g>
<g>
</g>
<g>
</g>
<g>
</g>
<g>
</g>
<g>
</g>
<g>
</g>
<g>
</g>
<g>
</g>
<g>
</g>
<g>
</g>
<g>
</g>
<g>
</g>
</svg>
